{
    "asset" : {
        "generator" : "Khronos glTF Blender I/O v3.3.27",
        "version" : "2.0"
    },
    "scene" : 0,
    "scenes" : [
        {
            "name" : "Scene",
            "nodes" : [
                0
            ]
        }
    ],
    "nodes" : [
        {
            "mesh" : 0,
            "name" : "\u0421\u043a\u043e\u0431\u0430"
        }
    ],
    "materials" : [
        {
            "doubleSided" : true,
            "name" : "Rust.001",
            "pbrMetallicRoughness" : {}
        }
    ],
    "meshes" : [
        {
            "name" : "\u0421\u043a\u043e\u0431\u0430",
            "primitives" : [
                {
                    "attributes" : {
                        "POSITION" : 0,
                        "NORMAL" : 1,
                        "TEXCOORD_0" : 2
                    },
                    "indices" : 3,
                    "material" : 0
                }
            ]
        }
    ],
    "accessors" : [
        {
            "bufferView" : 0,
            "componentType" : 5126,
            "count" : 4099,
            "max" : [
                14,
                56.51858901977539,
                30.826139450073242
            ],
            "min" : [
                -14,
                -35.77622985839844,
                -30.826139450073242
            ],
            "type" : "VEC3"
        },
        {
            "bufferView" : 1,
            "componentType" : 5126,
            "count" : 4099,
            "type" : "VEC3"
        },
        {
            "bufferView" : 2,
            "componentType" : 5126,
            "count" : 4099,
            "type" : "VEC2"
        },
        {
            "bufferView" : 3,
            "componentType" : 5123,
            "count" : 19371,
            "type" : "SCALAR"
        }
    ],
    "bufferViews" : [
        {
            "buffer" : 0,
            "byteLength" : 49188,
            "byteOffset" : 0,
            "target" : 34962
        },
        {
            "buffer" : 0,
            "byteLength" : 49188,
            "byteOffset" : 49188,
            "target" : 34962
        },
        {
            "buffer" : 0,
            "byteLength" : 32792,
            "byteOffset" : 98376,
            "target" : 34962
        },
        {
            "buffer" : 0,
            "byteLength" : 38742,
            "byteOffset" : 131168,
            "target" : 34963
        }
    ],
    "buffers" : [
        {
            "byteLength" : 169912,
            "uri" : "data:application/octet-stream;base64,"
        }
    ]
}
